<svg version="1.1" id="Layer_1" xmlns="http://www.w3.org/2000/svg" xmlns:xlink="http://www.w3.org/1999/xlink" x="0px" y="0px"
	 width="100%" viewBox="0 0 1024 1024" enable-background="new 0 0 1024 1024" xml:space="preserve">
<path fill="#000000" opacity="1.000000" stroke="none" 
	d="
M814.685303,865.275940 
	C813.080200,862.161621 811.581360,859.400452 809.714172,855.960632 
	C809.437683,858.848511 811.886963,860.842041 809.775696,863.590881 
	C803.915771,855.790344 799.773376,846.980713 792.712280,840.299683 
	C794.332947,849.119751 801.521362,855.227417 804.552795,863.302917 
	C804.190796,863.565674 803.828857,863.828430 803.466858,864.091248 
	C801.378479,862.139221 799.290100,860.187195 796.152588,857.254517 
	C797.720276,861.470215 798.785828,864.335449 799.851379,867.200745 
	C799.477722,867.484131 799.104126,867.767517 798.730469,868.050903 
	C793.604553,864.423706 790.239380,859.003723 786.120605,853.801270 
	C784.276123,861.017761 789.083130,865.881958 791.634644,872.311890 
	C785.426147,870.937988 785.525269,864.851990 781.683777,862.253113 
	C781.539429,863.245361 781.411621,864.123840 781.106079,866.223328 
	C775.635864,861.592041 774.159485,855.089722 770.144348,850.454651 
	C769.494080,851.469177 771.128174,852.621704 769.728210,853.759033 
	C766.869324,853.180664 766.663208,848.572632 762.840759,848.814453 
	C761.716064,853.404663 766.893005,857.266052 764.161194,863.063477 
	C720.571106,797.131104 688.132385,726.263000 654.325745,655.977417 
	C654.942200,657.733765 655.673462,659.460083 656.141785,661.255066 
	C656.582153,662.942749 658.039246,664.469788 657.050049,666.724854 
	C654.187378,665.353333 653.865112,662.560608 653.306885,660.174194 
	C652.273132,655.755310 650.009338,654.168640 645.264771,654.148438 
	C617.948364,654.032349 590.676453,651.939087 563.347534,652.062866 
	C562.590576,652.066284 561.832642,651.866211 561.101257,651.360535 
	C575.749634,651.016541 590.366272,650.937317 604.946167,649.828247 
	C619.391602,648.729370 633.888000,651.938538 648.356689,649.581421 
	C645.346619,647.643494 641.949890,647.741821 638.773132,647.584961 
	C626.630920,646.985596 614.420471,645.903870 602.327026,646.597839 
	C581.665100,647.783508 561.024902,646.891052 540.380798,647.272217 
	C529.885864,647.466064 519.367554,647.685913 508.893341,647.187561 
	C503.264130,646.919556 498.168732,649.633362 492.765045,649.241943 
	C456.529175,646.616760 420.388397,651.262817 384.172852,650.520386 
	C374.221313,650.316284 364.242279,651.736389 354.267426,652.246338 
	C350.429993,652.442566 349.480408,654.953979 349.385376,657.925964 
	C349.288208,660.965027 348.378845,663.024841 345.204681,663.701477 
	C343.540009,661.596619 345.729156,659.609924 344.999207,657.427124 
	C324.705872,700.989258 306.862915,745.604126 286.024567,788.936218 
	C283.814362,787.978821 285.348511,786.062012 284.432709,784.884399 
	C282.730927,785.917114 283.302399,788.702332 281.059845,789.418274 
	C279.773682,788.074219 281.237610,785.990906 279.062683,784.399109 
	C276.479980,792.453796 269.813080,798.038940 267.039764,806.093201 
	C264.604370,813.166138 261.554993,820.042603 258.497589,826.881042 
	C256.517883,831.309021 255.317276,836.337036 249.798126,838.371765 
	C247.884781,839.077148 247.151993,841.681396 246.315430,843.691162 
	C245.483322,845.690308 244.406982,847.472656 241.495651,849.256714 
	C243.304886,840.766357 247.215073,833.891296 247.593109,826.283020 
	C240.833771,833.474121 239.776718,843.747925 234.443192,851.882690 
	C235.235779,842.765076 240.655273,834.968506 241.149033,825.728088 
	C239.785919,835.171021 233.684021,842.128174 229.150558,850.147766 
	C228.093445,847.751099 226.593857,849.341064 225.436905,849.704407 
	C224.514160,847.444519 227.312408,844.352051 223.634705,843.473999 
	C220.338806,842.687073 218.717438,844.958740 217.832703,847.686707 
	C216.319427,852.352661 213.592850,856.474976 213.433441,861.811951 
	C213.342621,864.852234 210.229446,867.802246 208.032928,871.551208 
	C205.777954,864.852966 209.984482,860.243103 210.571609,854.986816 
	C209.410858,853.700562 208.248505,856.364319 206.830154,854.574890 
	C209.251358,845.018005 211.325455,835.027588 212.402985,824.792297 
	C206.455093,832.553833 207.583511,842.790710 203.649979,851.367737 
	C200.470352,850.010498 202.873886,847.070618 201.030884,845.457764 
	C198.477081,845.974365 199.253601,849.509766 196.389801,850.738831 
	C194.518448,843.497131 196.917603,836.680542 197.843323,829.532349 
	C192.474060,834.654541 190.432343,841.197266 188.455261,847.930176 
	C186.087875,846.280762 186.472916,844.684082 186.686966,843.277832 
	C187.137039,840.321106 189.592850,837.113647 185.088089,834.974548 
	C184.657242,834.769836 184.825562,832.317932 185.360580,831.224915 
	C188.799835,824.198547 184.969437,817.180786 185.865616,809.338501 
	C181.522705,813.515625 181.525101,819.774414 176.463699,822.692749 
	C174.928238,820.917480 175.701035,819.129700 176.149429,817.505798 
	C184.120209,788.639160 190.131760,759.234314 199.685150,730.806152 
	C207.373611,707.927429 214.978149,685.006592 223.422211,662.404053 
	C226.084106,655.278931 224.894623,647.130127 230.260178,640.711792 
	C232.588791,637.926208 228.059921,635.666626 227.112091,632.624878 
	C230.422318,630.199097 232.203613,627.847046 227.734589,624.287659 
	C225.596375,622.584656 227.255005,617.921265 223.407928,616.607361 
	C224.438660,613.287598 225.567459,610.283508 224.292679,607.103088 
	C223.792526,605.855347 224.150635,604.716675 225.162460,603.976257 
	C228.515259,601.522766 228.088486,598.110291 227.130692,594.929993 
	C226.464813,592.718994 226.225632,590.651184 226.971588,588.614563 
	C229.326080,582.186157 231.255920,576.310303 237.128265,570.968750 
	C245.581161,563.279907 254.987198,563.018677 264.671509,561.894775 
	C268.539764,561.445862 270.639130,560.021240 272.153290,556.575256 
	C278.507904,542.112915 284.700378,527.563904 291.587555,513.354492 
	C304.311920,487.101990 313.714020,459.493866 325.158386,432.725586 
	C326.153442,430.398224 326.319641,427.061005 330.302185,427.483246 
	C330.579437,427.512665 331.104004,426.466827 331.296295,425.852875 
	C334.796600,414.677246 342.089264,405.312042 346.048859,394.278290 
	C350.278961,382.490906 355.757690,371.153503 360.615082,359.587585 
	C361.553375,357.353455 362.139587,354.971436 362.907745,352.597351 
	C359.962524,351.922272 360.019592,355.056458 357.148926,355.374146 
	C359.059357,349.607178 361.373535,344.591644 364.141296,339.777374 
	C366.924652,340.900421 365.141083,342.918396 365.929840,344.681763 
	C371.426575,332.121399 374.960114,319.114563 381.433594,307.293213 
	C381.756165,313.525116 377.686218,318.477844 376.422302,324.228607 
	C377.504211,325.617676 379.030334,325.593292 380.945099,326.082886 
	C394.042236,294.686188 407.134857,263.300446 420.620819,230.971695 
	C417.626648,232.017441 418.054291,234.646164 415.880493,234.744858 
	C414.528625,233.564957 415.665192,232.352798 416.119568,231.307770 
	C431.083221,196.893173 448.403442,163.668518 466.872711,131.027222 
	C467.354675,130.175461 467.889496,129.012970 468.669250,128.724823 
	C474.363434,126.620544 478.530945,122.790588 481.371307,117.485397 
	C484.946503,118.655914 485.582794,120.417641 484.131805,123.511848 
	C482.226257,127.575500 480.802032,131.862091 479.060608,136.006500 
	C478.036743,138.443237 478.600342,140.107040 481.286102,140.205261 
	C489.095490,140.490875 496.912872,140.631531 504.727600,140.652878 
	C507.294830,140.659897 507.840637,137.285706 510.383850,136.670242 
	C510.637604,137.042542 510.968384,137.378235 511.123688,137.781479 
	C511.822021,139.594437 509.306366,141.999756 511.655273,143.290390 
	C514.086426,144.626190 517.047302,146.360245 519.678955,145.391876 
	C524.696716,143.545517 529.559326,145.670380 534.396606,145.047180 
	C538.589417,144.507004 542.099182,145.904434 545.909363,147.121887 
	C549.479004,148.262497 553.342896,148.087753 557.223816,147.203461 
	C563.289734,145.821274 569.192139,147.185760 576.314453,149.518951 
	C572.115662,151.456482 571.357239,155.355530 567.535583,155.761810 
	C568.260193,157.414734 570.211304,157.752914 570.201904,158.633377 
	C568.472229,165.760239 560.792297,164.634415 556.887817,169.676956 
	C564.048767,171.825150 570.749146,169.788666 577.810303,171.213638 
	C575.057739,174.368408 571.729980,172.422623 569.328918,174.003815 
	C568.493652,176.444290 570.707397,177.980164 571.644470,179.622528 
	C579.281982,193.007751 584.574341,207.804276 593.133423,220.451584 
	C611.422119,247.475876 620.121338,278.871979 634.909241,307.436249 
	C637.126343,311.718781 640.329895,314.815704 643.316223,318.329742 
	C649.194031,325.246185 653.449402,333.260315 656.270142,341.849945 
	C670.099304,383.962158 687.150391,424.858887 703.172974,466.135681 
	C711.906616,488.634918 719.385254,511.617981 729.298950,533.671387 
	C733.105408,542.139099 736.292603,550.909180 739.319641,559.693848 
	C740.976990,564.503540 743.843262,565.705383 748.661499,565.776367 
	C760.483032,565.950317 772.314453,563.897522 784.097717,565.684265 
	C788.696106,566.381531 792.579651,569.402954 797.763733,569.034973 
	C804.189514,568.578918 810.719299,569.508240 817.198303,569.929504 
	C819.108154,570.053711 821.216003,569.688232 823.807373,572.429810 
	C798.380493,573.845703 773.914490,572.538330 749.495911,573.816589 
	C763.274231,578.203430 778.401489,572.404663 792.995239,580.034119 
	C783.900940,582.385986 775.416931,580.109924 767.545044,582.911133 
	C770.697998,585.987366 774.031067,586.934082 778.812622,585.943970 
	C785.188721,584.623718 791.676575,586.707886 798.063477,587.827698 
	C799.267090,588.038696 799.346130,589.241699 800.012268,589.847168 
	C801.267395,590.987976 802.845459,592.667969 804.234131,589.862427 
	C804.680969,588.959839 805.552795,588.615906 806.306702,588.940491 
	C811.625610,591.230896 817.466675,591.103943 823.124207,592.737427 
	C815.412292,595.093201 807.066467,593.220520 799.935730,597.046204 
	C812.190369,600.678284 824.730103,601.913574 838.425110,597.789368 
	C836.707397,602.103149 834.361694,602.197876 831.908386,602.370667 
	C821.822937,603.081360 811.743896,603.884583 800.515686,604.741272 
	C808.637573,607.751648 816.235596,605.964844 823.451843,607.509705 
	C813.194580,610.953369 802.388977,607.713806 792.085449,610.207031 
	C796.473755,613.478760 802.393555,612.273193 806.630371,616.282776 
	C800.794678,615.596375 794.959045,614.909912 788.881836,614.195129 
	C790.012024,615.979553 792.370789,615.155029 793.326233,617.461304 
	C784.704224,620.261292 776.101929,615.774719 766.722046,616.673035 
	C770.102112,621.628784 774.827454,618.155823 777.697083,620.536987 
	C777.765686,621.809631 776.620422,621.787964 776.131836,622.383667 
	C776.383789,622.529419 776.631897,622.791687 776.886597,622.798340 
	C792.699707,623.209229 808.457092,625.019836 824.299255,624.691650 
	C828.408325,624.606567 830.005493,629.504150 834.201965,629.660217 
	C828.119934,630.969299 821.947998,628.762207 816.217773,630.448059 
	C810.285217,632.193359 804.418640,633.767090 797.413391,633.450562 
	C799.700195,637.102112 797.504089,637.261719 795.377991,637.348206 
	C789.242859,637.597900 783.385071,638.285461 779.314819,643.860962 
	C778.316833,645.228088 774.586731,643.372375 774.418640,647.801147 
	C779.728516,644.737061 784.160645,649.364014 789.766663,646.694885 
	C787.924377,650.417969 784.538147,648.474854 783.165649,650.962341 
	C784.021606,655.022461 787.157104,658.612610 787.047363,663.374817 
	C783.985474,659.246948 781.302917,654.908264 776.906982,651.773071 
	C789.983093,687.876099 805.326843,723.077942 817.730408,759.172180 
	C816.087158,760.411743 815.445190,758.997192 814.445007,758.986023 
	C813.626831,760.133850 815.308411,761.516663 814.086670,762.718872 
	C812.040405,763.507324 811.131592,761.470764 809.991516,760.591553 
	C813.732422,777.021057 819.515381,792.674988 826.226013,808.040466 
	C827.972900,812.040466 831.383240,816.267761 827.613159,821.289307 
	C826.954041,822.167297 828.428955,824.667969 828.953186,826.408691 
	C829.606201,828.576843 831.085815,830.650513 829.338684,833.672241 
	C824.780945,826.923828 822.394897,819.225464 817.170105,813.317932 
	C818.662231,823.175110 824.060242,831.660400 826.720642,841.112427 
	C820.527405,835.014648 819.755859,825.856567 813.625061,819.655334 
	C817.971436,828.016357 822.374084,836.340393 819.543701,846.266541 
	C818.652161,846.092102 818.278564,846.125793 818.056702,845.958435 
	C816.500916,844.784790 815.851990,841.405457 813.106995,843.143616 
	C810.746948,844.637939 810.469116,847.465576 811.691223,849.894409 
	C813.902527,854.288818 815.009644,859.122620 818.470825,863.079895 
	C820.600647,865.514954 820.138123,869.764221 821.833130,873.012451 
	C817.698364,871.984192 815.869690,869.148621 814.685303,865.275940 
M558.999329,393.010223 
	C558.999329,393.010223 559.027649,393.049072 558.830811,392.338165 
	C554.342529,380.644623 547.818848,369.796967 544.391663,357.623749 
	C547.768005,360.526611 549.053589,364.632294 550.692139,368.478790 
	C552.067627,371.707550 553.796387,372.390991 556.938782,369.966064 
	C543.409180,337.228760 530.452026,304.362030 515.473999,272.350220 
	C515.373047,275.730103 517.746277,278.630493 516.750305,282.082886 
	C512.902405,277.188324 512.736511,270.588470 508.840118,265.779816 
	C506.205139,267.142212 506.070007,269.524323 505.303253,271.448792 
	C500.928833,282.428070 496.302490,293.325409 492.435669,304.484100 
	C486.945190,320.328156 477.908264,335.032623 477.555695,352.577637 
	C477.397614,360.445679 474.230591,367.795319 470.841827,374.908173 
	C461.747650,393.996216 452.250946,412.908905 443.737183,432.253510 
	C428.245178,467.453613 412.930115,502.728638 396.611450,537.557983 
	C394.210815,542.681641 391.814056,547.820862 389.746979,553.083069 
	C387.942505,557.676758 388.743591,558.636963 393.797943,558.718323 
	C397.627869,558.780029 401.547028,559.184082 405.275391,558.549011 
	C415.688354,556.775146 425.981567,559.514221 436.437164,558.800781 
	C445.891785,558.155640 455.521759,559.466614 465.083008,558.633850 
	C473.543701,557.896912 482.154236,558.045288 490.490143,558.395874 
	C497.607147,558.695251 504.986908,558.990417 512.140076,559.313232 
	C516.894409,559.527832 521.837280,559.226807 526.787292,559.481689 
	C542.874329,560.310059 558.995056,560.491028 575.104126,560.869141 
	C576.402466,560.899597 578.369690,561.007385 578.901062,560.269348 
	C581.406128,556.789673 583.000977,556.975830 585.480835,560.496948 
	C587.292786,563.069824 592.209167,561.711670 593.516357,558.408752 
	C595.093201,560.604248 596.920471,561.638306 599.708252,561.816650 
	C606.966309,562.280823 614.227173,558.812866 621.469849,561.897766 
	C622.061951,562.149902 622.998230,561.594055 625.249023,561.070923 
	C615.476685,531.808533 600.788330,504.962372 590.390076,476.702362 
	C592.229736,475.550079 591.886658,478.068909 593.507202,477.346832 
	C591.241333,471.480316 588.147949,465.778076 586.877380,459.695099 
	C584.336670,447.531647 577.499207,437.132782 573.804382,425.444672 
	C572.365051,420.891418 569.520691,416.588409 567.991089,411.834045 
	C565.842957,405.156525 562.630432,398.947998 558.999329,393.010223 
z"/>
<path fill="#000000" opacity="1.000000" stroke="none" 
	d="
M432.650818,179.481598 
	C431.565460,180.948547 430.880371,182.377731 429.158630,182.435196 
	C427.649109,181.943283 428.992920,180.359879 428.211761,179.455475 
	C426.181488,181.944016 425.735565,185.163544 423.108551,187.101547 
	C422.123962,185.197495 423.145203,183.898560 423.742737,182.622437 
	C429.462646,170.406113 433.550171,156.933548 441.535034,146.427551 
	C447.764130,138.231674 450.113495,127.589127 459.122437,121.343605 
	C451.690338,141.213303 444.913818,161.372498 432.650818,179.481598 
z"/>
<path fill="#000000" opacity="1.000000" stroke="none" 
	d="
M283.380707,519.660706 
	C279.562195,529.339966 275.839142,538.674561 272.123505,547.990601 
	C269.458466,547.139587 268.434753,545.967285 269.363037,543.730835 
	C273.217133,534.445312 277.065094,525.157288 280.892426,515.925476 
	C283.604156,516.059448 283.934784,517.424133 283.380707,519.660706 
z"/>
<path fill="#000000" opacity="1.000000" stroke="none" 
	d="
M293.242462,792.150696 
	C291.800262,794.878601 291.331665,797.773438 288.876221,799.828979 
	C288.385773,796.005676 303.195221,762.371155 307.034882,760.130981 
	C303.127838,771.759705 297.901855,781.639099 293.242462,792.150696 
z"/>
<path fill="#000000" opacity="1.000000" stroke="none" 
	d="
M823.790100,752.375244 
	C825.290833,757.060059 827.463196,761.152893 828.185547,765.658630 
	C827.692139,765.831543 827.198730,766.004517 826.705383,766.177429 
	C821.553040,753.296753 816.400757,740.416077 811.248413,727.535339 
	C811.927612,727.259521 812.606812,726.983643 813.285950,726.707825 
	C817.607544,734.760437 820.251709,743.552307 823.790100,752.375244 
z"/>
<path fill="#000000" opacity="1.000000" stroke="none" 
	d="
M399.020477,275.110657 
	C397.204285,279.851898 395.430237,284.211609 392.080933,287.781555 
	C392.900421,281.584686 395.856873,276.296997 398.707886,270.576263 
	C400.640930,272.460022 399.191406,273.586975 399.020477,275.110657 
z"/>
<path fill="#000000" opacity="1.000000" stroke="none" 
	d="
M338.794556,685.494141 
	C337.312439,689.389221 336.944458,693.470032 333.828644,696.710449 
	C332.697723,694.288391 334.106903,693.019775 334.753540,691.612610 
	C335.717285,689.515381 337.061920,687.605591 335.856415,685.059204 
	C335.256683,683.792480 336.169098,682.458252 336.753540,681.281677 
	C337.310394,680.160583 337.815033,678.449036 339.587341,679.488770 
	C341.210938,680.441040 340.394226,681.667297 339.596832,682.866150 
	C339.168640,683.509949 339.092621,684.387878 338.794556,685.494141 
z"/>
<path fill="#000000" opacity="1.000000" stroke="none" 
	d="
M390.469727,277.833313 
	C391.411011,276.559631 391.698730,275.024139 394.009186,275.221039 
	C393.016632,280.066162 391.499329,284.461945 387.707214,289.306488 
	C387.121582,284.338928 389.007172,281.308594 390.469727,277.833313 
z"/>
<path fill="#000000" opacity="1.000000" stroke="none" 
	d="
M374.802551,316.288818 
	C374.362732,321.013947 372.886993,325.110413 369.550537,328.364624 
	C370.432281,323.919220 370.288727,319.072357 374.802551,316.288818 
z"/>
<path fill="#000000" opacity="1.000000" stroke="none" 
	d="
M558.983154,392.992462 
	C560.476318,397.613159 562.013000,402.246643 561.380737,407.349121 
	C558.038940,402.461182 556.603699,396.858795 554.690979,391.443237 
	C556.953979,390.368500 557.417175,392.209381 558.760132,392.885834 
	C559.027649,393.049072 558.999329,393.010223 558.983154,392.992462 
z"/>
<path fill="#000000" opacity="1.000000" stroke="none" 
	d="
M537.611450,332.082520 
	C538.074585,333.328461 538.588928,334.246429 537.379578,335.950073 
	C533.606384,329.815491 531.686768,323.426788 529.664917,316.401794 
	C532.462952,318.567230 532.478394,318.561249 534.519653,323.822937 
	C535.541199,326.456146 536.494629,329.115814 537.611450,332.082520 
z"/>
<path fill="#000000" opacity="1.000000" stroke="none" 
	d="
M532.090576,335.597717 
	C530.649475,332.285522 528.945312,329.417786 529.652527,325.781433 
	C533.213135,329.359619 534.612122,333.968079 536.103821,339.018768 
	C533.383728,339.056000 533.192505,337.064941 532.090576,335.597717 
z"/>
<path fill="#000000" opacity="1.000000" stroke="none" 
	d="
M545.494995,370.784363 
	C544.985718,369.567444 544.389648,368.690399 545.569397,366.950684 
	C548.543579,370.901062 549.969666,375.106506 551.089722,379.482819 
	C547.729187,377.600586 546.913635,374.202301 545.494995,370.784363 
z"/>
</svg>